# xmcd CD database file
#
# Track frame offsets:
#	150
#	12752
#	26441
#	40481
#	58008
#	71635
#	86599
#	96564
#	111416
#	125105
#	138295
#	152847
#	164324
#	176676
#
# Disc length: 2522 seconds
#
# Revision: 0
# Processed by: cddbd v1.5.2PL0 Copyright (c) Steve Scherf et al.
# Submitted via: CDex 1.51
#
DISCID=c409d80e
DTITLE=Truck Stop - Weihnachten im Wilden Westen
DYEAR=1900
DGENRE=Country
TTITLE0=Jingle Bells
TTITLE1=Ich wünsche mir zum Wihnachtsfest
TTITLE2=Papi nur eines wünsch ich mir
TTITLE3=Big Old Joe-der Weihnachtsbär
TTITLE4=Der Weihnachtsmann sah aus wie Papa
TTITLE5=Weihnachtstraum Montana
TTITLE6=Der Weihnachtsmann kommt heute in die Stadt
TTITLE7=Söhnchen mein Söhnchen
TTITLE8=Weiße Weihnacht im Wilden Westen
TTITLE9=Ich schenk dir einen Schneemann
TTITLE10=Kommt der Weihnachtsmann nach Texas
TTITLE11=Erwin der dicke Schneemann
TTITLE12=Wir wünschen euch ein frohes Fest
TTITLE13=Stille Nacht
EXTD=
EXTT0=
EXTT1=
EXTT2=
EXTT3=
EXTT4=
EXTT5=
EXTT6=
EXTT7=
EXTT8=
EXTT9=
EXTT10=
EXTT11=
EXTT12=
EXTT13=
PLAYORDER=
